<?xml version="1.0" standalone="no"?>
<!DOCTYPE svg PUBLIC "-//W3C//DTD SVG 20010904//EN"
 "http://www.w3.org/TR/2001/REC-SVG-20010904/DTD/svg10.dtd">
<svg version="1.0" xmlns="http://www.w3.org/2000/svg"
 width="16.000000pt" height="16.000000pt" viewBox="0 0 16.000000 16.000000"
 preserveAspectRatio="xMidYMid meet">
<metadata>
Created by potrace 1.11, written by Peter Selinger 2001-2013
</metadata>
<g transform="translate(0.000000,16.000000) scale(0.002500,-0.002500)"
fill="#000000" stroke="none">
<path d="M3566 5822 c-3 -3 -6 -214 -6 -468 l0 -463 33 -5 c17 -3 56 -4 84 -3
l53 2 0 471 0 471 -79 0 c-44 1 -82 -1 -85 -5z"/>
<path d="M3051 5660 c-38 -9 -53 -28 -62 -80 -8 -43 11 -94 42 -111 29 -15 98
-15 127 0 55 30 69 138 22 172 -31 22 -84 30 -129 19z"/>
<path d="M5533 5610 c-44 -18 -58 -96 -25 -136 65 -81 192 -45 192 54 0 60
-25 84 -91 88 -30 2 -64 0 -76 -6z"/>
<path d="M5803 5610 c-44 -18 -58 -96 -25 -136 67 -83 192 -44 192 59 0 58
-23 79 -93 84 -28 1 -62 -1 -74 -7z"/>
<path d="M4720 5423 c-1 -4 -9 -64 -19 -132 -21 -139 -36 -168 -97 -189 -56
-20 -243 -12 -278 11 -26 17 -26 19 -26 142 l0 125 -32 1 c-33 2 -69 2 -120 0
l-27 -1 -3 -258 -3 -259 -28 -36 c-47 -61 -75 -71 -232 -77 -83 -3 -140 -9
-140 -15 0 -5 6 -52 14 -102 l14 -93 117 0 c89 0 133 5 181 20 119 36 214 151
243 293 10 44 18 61 27 58 94 -27 125 -31 234 -28 99 2 128 6 163 24 36 18 42
18 38 4 -5 -13 -46 -314 -46 -332 0 -7 159 -34 165 -28 2 2 11 58 20 123 9 66
23 132 31 147 31 61 6 59 779 59 l705 0 0 105 0 105 -737 0 c-712 0 -740 -1
-781 -20 l-44 -20 6 28 c8 41 35 242 38 287 l3 40 -50 7 c-27 4 -65 10 -82 13
-18 3 -33 2 -33 -2z"/>
<path d="M3168 5375 c-1 -5 -2 -65 -2 -132 -1 -86 -5 -126 -14 -135 -11 -11
-311 -13 -1582 -16 l-1570 -2 0 -105 0 -105 1568 0 c1734 0 1626 -4 1693 63
17 18 42 56 56 85 22 50 23 64 21 204 l-3 150 -83 1 c-48 1 -83 -2 -84 -8z"/>
<path d="M4685 3485 c-207 -36 -351 -108 -485 -244 -93 -93 -159 -215 -191
-347 -18 -77 -21 -109 -16 -239 6 -161 18 -221 68 -331 58 -132 170 -258 313
-356 77 -53 275 -154 386 -197 153 -61 384 -178 432 -220 66 -59 98 -127 98
-213 0 -105 -39 -174 -130 -232 -93 -59 -270 -82 -410 -52 -155 33 -308 139
-403 281 -22 33 -41 62 -43 64 -5 6 -457 -251 -482 -274 -12 -10 -11 -18 4
-46 61 -120 201 -277 319 -358 199 -138 418 -207 691 -218 470 -19 831 150
985 462 63 130 74 185 74 385 0 153 -3 185 -23 254 -53 184 -168 336 -346 461
-102 70 -327 186 -516 265 -306 128 -399 201 -420 332 -32 208 151 349 381
294 32 -7 77 -25 102 -39 50 -29 127 -111 160 -169 12 -21 25 -37 28 -35 3 1
110 69 237 151 l232 149 -28 49 c-39 71 -133 181 -209 243 -160 132 -371 197
-631 194 -59 -1 -138 -7 -177 -14z"/>
<path d="M2877 2383 c-2 -985 -4 -1093 -20 -1143 -35 -116 -98 -170 -222 -191
-85 -14 -179 0 -241 36 -52 30 -132 117 -172 187 -17 29 -35 59 -40 66 -7 11
-65 -20 -253 -133 -134 -81 -245 -149 -247 -150 -6 -6 41 -91 91 -162 122
-178 299 -300 523 -360 90 -24 116 -27 289 -27 175 0 198 2 293 26 310 82 496
269 577 583 32 124 36 282 33 1320 l-3 1030 -302 3 -302 3 -4 -1088z"/>
</g>
</svg>
